<svg width="15" height="15" viewBox="0 0 15 15" fill="none" xmlns="http://www.w3.org/2000/svg">
<path d="M11.25 15C11.1875 15 11.125 14.9875 11.0662 14.9625C10.9212 14.9006 7.5 13.4106 7.5 10.3462V7.835C7.50003 7.73707 7.53073 7.64161 7.58778 7.56202C7.64484 7.48243 7.72539 7.42271 7.81812 7.39125L11.0994 6.275C11.1971 6.24185 11.3029 6.24185 11.4006 6.275L14.6819 7.39125C14.7746 7.42271 14.8552 7.48243 14.9122 7.56202C14.9693 7.64161 15 7.73707 15 7.835V10.3462C15 13.4106 11.5788 14.9006 11.4338 14.9631C11.3755 14.9874 11.3131 14.9999 11.25 15ZM8.4375 8.17062V10.3456C8.4375 12.4287 10.5975 13.6812 11.25 14.0112C11.9025 13.6812 14.0625 12.4287 14.0625 10.3456V8.17062L11.25 7.21375L8.4375 8.17062Z" fill="#909090"/>
<path d="M11.0938 12.1875C11.0322 12.1877 10.9712 12.1756 10.9143 12.152C10.8575 12.1284 10.8059 12.0937 10.7625 12.05L9.5125 10.8C9.46896 10.7565 9.43442 10.7048 9.41086 10.6479C9.38729 10.591 9.37516 10.53 9.37516 10.4684C9.37516 10.4069 9.38729 10.3459 9.41086 10.289C9.43442 10.2321 9.46896 10.1804 9.5125 10.1369C9.55604 10.0933 9.60773 10.0588 9.66462 10.0352C9.72151 10.0117 9.78249 9.99954 9.84406 9.99954C9.90564 9.99954 9.96661 10.0117 10.0235 10.0352C10.0804 10.0588 10.1321 10.0933 10.1756 10.1369L11.0438 11.005L12.5938 8.9375C12.6303 8.88717 12.6765 8.84462 12.7297 8.81233C12.7828 8.78004 12.8419 8.75865 12.9034 8.7494C12.9649 8.74016 13.0276 8.74326 13.0879 8.75851C13.1482 8.77375 13.2049 8.80085 13.2546 8.83822C13.3044 8.87558 13.3461 8.92247 13.3776 8.97615C13.409 9.02983 13.4294 9.08923 13.4377 9.15088C13.4459 9.21253 13.4418 9.27521 13.4255 9.33525C13.4093 9.3953 13.3813 9.45152 13.3431 9.50063L11.4681 12.0006C11.4278 12.0544 11.3764 12.0988 11.3174 12.1309C11.2585 12.1631 11.1933 12.1821 11.1263 12.1869L11.0938 12.1875ZM6.61875 13.125H1.71875C1.26301 13.1247 0.826032 12.9435 0.503776 12.6212C0.181519 12.299 0.000331086 11.862 0 11.4062L0 1.71875C0.000331086 1.26301 0.181519 0.826032 0.503776 0.503776C0.826032 0.181519 1.26301 0.000331086 1.71875 0L8.90625 0C9.36199 0.000331086 9.79897 0.181519 10.1212 0.503776C10.4435 0.826032 10.6247 1.26301 10.625 1.71875V5.1125C10.625 5.23682 10.5756 5.35605 10.4877 5.44396C10.3998 5.53186 10.2806 5.58125 10.1563 5.58125C10.0319 5.58125 9.9127 5.53186 9.82479 5.44396C9.73689 5.35605 9.6875 5.23682 9.6875 5.1125V1.71875C9.6875 1.28813 9.33688 0.9375 8.90625 0.9375H1.71875C1.28813 0.9375 0.9375 1.28813 0.9375 1.71875V11.4062C0.9375 11.8369 1.28813 12.1875 1.71875 12.1875H6.61875C6.74307 12.1875 6.8623 12.2369 6.95021 12.3248C7.03811 12.4127 7.0875 12.5319 7.0875 12.6562C7.0875 12.7806 7.03811 12.8998 6.95021 12.9877C6.8623 13.0756 6.74307 13.125 6.61875 13.125Z" fill="#909090"/>
<path d="M8.28125 5.9375H2.34375C2.21943 5.9375 2.1002 5.88811 2.01229 5.80021C1.92439 5.7123 1.875 5.59307 1.875 5.46875C1.875 5.34443 1.92439 5.2252 2.01229 5.13729C2.1002 5.04939 2.21943 5 2.34375 5H8.28125C8.40557 5 8.5248 5.04939 8.61271 5.13729C8.70061 5.2252 8.75 5.34443 8.75 5.46875C8.75 5.59307 8.70061 5.7123 8.61271 5.80021C8.5248 5.88811 8.40557 5.9375 8.28125 5.9375ZM5.78125 8.4375H2.34375C2.21943 8.4375 2.1002 8.38811 2.01229 8.30021C1.92439 8.2123 1.875 8.09307 1.875 7.96875C1.875 7.84443 1.92439 7.7252 2.01229 7.63729C2.1002 7.54939 2.21943 7.5 2.34375 7.5H5.78125C5.90557 7.5 6.0248 7.54939 6.11271 7.63729C6.20061 7.7252 6.25 7.84443 6.25 7.96875C6.25 8.09307 6.20061 8.2123 6.11271 8.30021C6.0248 8.38811 5.90557 8.4375 5.78125 8.4375ZM5.15625 3.4375H2.34375C2.21943 3.4375 2.1002 3.38811 2.01229 3.30021C1.92439 3.2123 1.875 3.09307 1.875 2.96875C1.875 2.84443 1.92439 2.7252 2.01229 2.63729C2.1002 2.54939 2.21943 2.5 2.34375 2.5H5.15625C5.28057 2.5 5.3998 2.54939 5.48771 2.63729C5.57561 2.7252 5.625 2.84443 5.625 2.96875C5.625 3.09307 5.57561 3.2123 5.48771 3.30021C5.3998 3.38811 5.28057 3.4375 5.15625 3.4375Z" fill="#909090"/>
</svg>
