<svg width="15" height="15" viewBox="0 0 15 15" fill="none" xmlns="http://www.w3.org/2000/svg">
<path d="M6.875 5.625H8.125V4.375H6.875V5.625ZM6.875 10.625H8.125V6.875H6.875V10.625ZM7.5 13.75C4.04375 13.75 1.25 10.9375 1.25 7.5C1.25 5.8424 1.90848 4.25268 3.08058 3.08058C3.66095 2.50022 4.34994 2.03984 5.10823 1.72575C5.86651 1.41166 6.67924 1.25 7.5 1.25C9.1576 1.25 10.7473 1.90848 11.9194 3.08058C13.0915 4.25268 13.75 5.8424 13.75 7.5C13.75 8.32076 13.5883 9.13349 13.2742 9.89177C12.9602 10.6501 12.4998 11.3391 11.9194 11.9194C11.3391 12.4998 10.6501 12.9602 9.89177 13.2742C9.13349 13.5883 8.32076 13.75 7.5 13.75ZM7.5 2.5C6.17392 2.5 4.90215 3.02678 3.96447 3.96447C3.02678 4.90215 2.5 6.17392 2.5 7.5C2.5 8.82608 3.02678 10.0979 3.96447 11.0355C4.90215 11.9732 6.17392 12.5 7.5 12.5C8.82608 12.5 10.0979 11.9732 11.0355 11.0355C11.9732 10.0979 12.5 8.82608 12.5 7.5C12.5 6.17392 11.9732 4.90215 11.0355 3.96447C10.0979 3.02678 8.82608 2.5 7.5 2.5Z" fill="#909090"/>
</svg>
