<svg width="15" height="15" viewBox="0 0 15 15" fill="none" xmlns="http://www.w3.org/2000/svg">
<path d="M12.5 5.15625V11.25C12.5 13.125 11.3813 13.75 10 13.75H5C3.61875 13.75 2.5 13.125 2.5 11.25V5.15625C2.5 3.125 3.61875 2.65625 5 2.65625C5 3.04375 5.15625 3.39375 5.4125 3.65C5.66875 3.90625 6.01875 4.0625 6.40625 4.0625H8.59375C9.36875 4.0625 10 3.43125 10 2.65625C11.3813 2.65625 12.5 3.125 12.5 5.15625Z" stroke="#909090" stroke-width="1.5" stroke-linecap="round" stroke-linejoin="round"/>
<path d="M5 8.125H7.5M5 10.625H10M10 2.65625C10 3.43125 9.36875 4.0625 8.59375 4.0625H6.40625C6.01875 4.0625 5.66875 3.90625 5.4125 3.65C5.15625 3.39375 5 3.04375 5 2.65625C5 1.88125 5.63125 1.25 6.40625 1.25H8.59375C8.98125 1.25 9.33125 1.40625 9.5875 1.6625C9.84375 1.91875 10 2.26875 10 2.65625Z" stroke="#909090" stroke-width="1.5" stroke-linecap="round" stroke-linejoin="round"/>
</svg>
