<svg width="15" height="15" viewBox="0 0 15 15" fill="none" xmlns="http://www.w3.org/2000/svg">
<path d="M7.51249 1.81876C5.44374 1.81876 3.76249 3.50001 3.76249 5.56876V7.37501C3.76249 7.75626 3.59999 8.33751 3.40624 8.66251L2.68749 9.85626C2.24374 10.5938 2.54999 11.4125 3.36249 11.6875C6.05624 12.5875 8.96249 12.5875 11.6562 11.6875C12.4125 11.4375 12.7437 10.5438 12.3312 9.85626L11.6125 8.66251C11.425 8.33751 11.2625 7.75626 11.2625 7.37501V5.56876C11.2625 3.50626 9.57499 1.81876 7.51249 1.81876Z" stroke="#909090" stroke-width="1.5" stroke-miterlimit="10" stroke-linecap="round"/>
<path d="M8.6687 1.99999C7.9129 1.78474 7.11201 1.78474 6.3562 1.99999C6.53745 1.53749 6.98745 1.21249 7.51245 1.21249C8.03745 1.21249 8.48745 1.53749 8.6687 1.99999Z" stroke="#909090" stroke-width="1.5" stroke-miterlimit="10" stroke-linecap="round" stroke-linejoin="round"/>
<path d="M9.38745 11.9125C9.38745 12.9438 8.5437 13.7875 7.51245 13.7875C6.99995 13.7875 6.52495 13.575 6.18745 13.2375C5.8363 12.8858 5.63857 12.4095 5.63745 11.9125" stroke="#909090" stroke-width="1.5" stroke-miterlimit="10"/>
</svg>
