<svg width="15" height="15" viewBox="0 0 15 15" fill="none" xmlns="http://www.w3.org/2000/svg">
<g clip-path="url(#clip0_331_4932)">
<path d="M6.8875 12.1875H4.6875C4.3 12.1875 3.95625 12.175 3.65 12.1312C2.00625 11.95 1.5625 11.175 1.5625 9.0625V5.9375C1.5625 3.825 2.00625 3.05 3.65 2.86875C3.95625 2.825 4.3 2.8125 4.6875 2.8125H6.85M9.3875 2.8125H10.3125C10.7 2.8125 11.0437 2.825 11.35 2.86875C12.9937 3.05 13.4375 3.825 13.4375 5.9375V9.0625C13.4375 11.175 12.9937 11.95 11.35 12.1312C11.0437 12.175 10.7 12.1875 10.3125 12.1875H9.3875M9.375 1.25V13.75" stroke="#909090" stroke-width="1.5" stroke-linecap="round" stroke-linejoin="round"/>
<path d="M6.93434 7.5H6.93934M4.43372 7.5H4.43997" stroke="#909090" stroke-width="2" stroke-linecap="round" stroke-linejoin="round"/>
</g>
<defs>
<clipPath id="clip0_331_4932">
<rect width="15" height="15" fill="white"/>
</clipPath>
</defs>
</svg>
