<svg width="15" height="15" viewBox="0 0 15 15" fill="none" xmlns="http://www.w3.org/2000/svg">
<path d="M7.59995 6.79375C7.53745 6.7875 7.46245 6.7875 7.3937 6.79375C6.67633 6.76939 5.9966 6.46677 5.49847 5.94998C5.00034 5.43318 4.72291 4.74278 4.72495 4.025C4.72495 2.49375 5.96245 1.25 7.49995 1.25C7.86396 1.24343 8.2257 1.30863 8.56451 1.44186C8.90332 1.5751 9.21257 1.77376 9.47461 2.02651C9.73664 2.27926 9.94633 2.58114 10.0917 2.91493C10.2371 3.24872 10.3153 3.60787 10.3218 3.97188C10.3284 4.33588 10.2632 4.69762 10.13 5.03643C9.99673 5.37524 9.79807 5.6845 9.54532 5.94653C9.29257 6.20857 8.99068 6.41825 8.6569 6.56362C8.32311 6.70899 7.96396 6.78718 7.59995 6.79375ZM4.47495 9.1C2.96245 10.1125 2.96245 11.7625 4.47495 12.7688C6.1937 13.9188 9.01245 13.9188 10.7312 12.7688C12.2437 11.7563 12.2437 10.1063 10.7312 9.1C9.0187 7.95625 6.19995 7.95625 4.47495 9.1Z" stroke="#909090" stroke-width="1.5" stroke-linecap="round" stroke-linejoin="round"/>
</svg>
