<svg width="24" height="24" viewBox="0 0 24 24" fill="none" xmlns="http://www.w3.org/2000/svg">
<path d="M22 4.85005V16.7401C22 17.7101 21.21 18.6001 20.24 18.7201L19.93 18.7601C18.29 18.9801 15.98 19.6601 14.12 20.4401C13.47 20.7101 12.75 20.2201 12.75 19.5101V5.60005C12.75 5.23005 12.96 4.89005 13.29 4.71005C15.12 3.72005 17.89 2.84005 19.77 2.68005H19.83C21.03 2.68005 22 3.65005 22 4.85005ZM10.708 4.71005C8.87798 3.72005 6.10798 2.84005 4.22798 2.68005H4.15798C2.95798 2.68005 1.98798 3.65005 1.98798 4.85005V16.7401C1.98798 17.7101 2.77798 18.6001 3.74798 18.7201L4.05798 18.7601C5.69798 18.9801 8.00798 19.6601 9.86798 20.4401C10.518 20.7101 11.238 20.2201 11.238 19.5101V5.60005C11.2393 5.41745 11.1906 5.23797 11.0972 5.08108C11.0038 4.92419 10.8692 4.79587 10.708 4.71005ZM4.99798 7.74005H7.24798C7.44689 7.74005 7.63765 7.81907 7.77831 7.95972C7.91896 8.10038 7.99798 8.29114 7.99798 8.49005C7.99798 8.68897 7.91896 8.87973 7.77831 9.02038C7.63765 9.16104 7.44689 9.24005 7.24798 9.24005H4.99798C4.79906 9.24005 4.6083 9.16104 4.46765 9.02038C4.32699 8.87973 4.24798 8.68897 4.24798 8.49005C4.24798 8.29114 4.32699 8.10038 4.46765 7.95972C4.6083 7.81907 4.79906 7.74005 4.99798 7.74005ZM7.99798 12.2401H4.99798C4.79906 12.2401 4.6083 12.161 4.46765 12.0204C4.32699 11.8797 4.24798 11.689 4.24798 11.4901C4.24798 11.2911 4.32699 11.1004 4.46765 10.9597C4.6083 10.8191 4.79906 10.7401 4.99798 10.7401H7.99798C8.19689 10.7401 8.38765 10.8191 8.52831 10.9597C8.66896 11.1004 8.74798 11.2911 8.74798 11.4901C8.74798 11.689 8.66896 11.8797 8.52831 12.0204C8.38765 12.161 8.19689 12.2401 7.99798 12.2401Z" fill="#F8F8F8"/>
</svg>
