<svg width="24" height="24" viewBox="0 0 24 24" fill="none" xmlns="http://www.w3.org/2000/svg">
<path d="M18.69 11.53C18.12 11.38 17.45 11.3 16.65 11.3C15.54 11.3 15.13 11.57 14.56 12C14.53 12.02 14.5 12.05 14.47 12.08L13.52 13.09C12.72 13.93 11.28 13.94 10.48 13.08L9.52999 12.08C9.49999 12.05 9.46999 12.02 9.43999 12C8.86999 11.57 8.45999 11.3 7.34999 11.3C6.54999 11.3 5.87999 11.38 5.30999 11.53C2.92999 12.17 2.92999 14.06 2.92999 15.72V16.65C2.92999 19.16 2.92999 22 8.27999 22H15.72C19.27 22 21.07 20.2 21.07 16.65V15.72C21.07 14.06 21.07 12.17 18.69 11.53ZM14.33 18.4H9.66999C9.28999 18.4 8.97999 18.09 8.97999 17.7C8.97999 17.31 9.28999 17 9.66999 17H14.33C14.71 17 15.02 17.31 15.02 17.7C15.02 18.09 14.71 18.4 14.33 18.4ZM12.668 2.67C12.668 2.49231 12.5974 2.32189 12.4718 2.19624C12.3461 2.07059 12.1757 2 11.998 2C11.8203 2 11.6499 2.07059 11.5242 2.19624C11.3986 2.32189 11.328 2.49231 11.328 2.67V4H12.678V2.67H12.668Z" fill="#F8F8F8"/>
<path d="M19.21 8.42V10.12C19.17 10.1 19.12 10.09 19.08 10.08H19.07C18.36 9.89 17.57 9.8 16.65 9.8C15.11 9.8 14.38 10.25 13.72 10.75C13.58 10.85 13.48 10.95 13.38 11.05L12.43 12.06C12.33 12.16 12.17 12.22 12 12.22C11.9205 12.2227 11.8413 12.2089 11.7673 12.1797C11.6933 12.1505 11.6262 12.1063 11.57 12.05L10.59 11.02C10.49 10.91 10.37 10.82 10.34 10.8C9.61998 10.25 8.88998 9.8 7.34998 9.8C6.42998 9.8 5.63998 9.89 4.91998 10.08C4.87998 10.09 4.82998 10.1 4.78998 10.12V8.42C4.78998 6.35 4.78998 4 9.20998 4H11.33V7.45L10.68 6.8C10.5521 6.68207 10.3837 6.61797 10.2098 6.62102C10.0359 6.62408 9.86982 6.69407 9.74617 6.81642C9.62253 6.93877 9.55081 7.10408 9.54594 7.27796C9.54106 7.45184 9.60339 7.62091 9.71998 7.75L11.52 9.55C11.53 9.56 11.54 9.56 11.54 9.57C11.6 9.62 11.67 9.67 11.74 9.7C11.83 9.73 11.91 9.75 12 9.75C12.09 9.75 12.17 9.73 12.26 9.7C12.34 9.67 12.41 9.62 12.48 9.55L14.28 7.75C14.3966 7.62091 14.4589 7.45184 14.454 7.27796C14.4491 7.10408 14.3774 6.93877 14.2538 6.81642C14.1301 6.69407 13.9641 6.62408 13.7902 6.62102C13.6163 6.61797 13.4478 6.68207 13.32 6.8L12.67 7.45V4H14.79C19.21 4 19.21 6.35 19.21 8.42Z" fill="#F8F8F8"/>
</svg>
