<svg width="29" height="27" viewBox="0 0 29 27" fill="none" xmlns="http://www.w3.org/2000/svg">
<path d="M4.0479 2.25H14.8021C15.6962 2.25 16.4333 2.93625 16.4333 3.76875V5.43375C16.4333 6.04125 16.0225 6.795 15.6237 7.1775L12.1196 10.0575C11.6362 10.44 11.31 11.1937 11.31 11.8012V15.0638C11.31 15.5138 10.9837 16.1212 10.5729 16.3575L9.43707 17.0437C8.37374 17.6512 6.91165 16.965 6.91165 15.75V11.7338C6.91165 11.205 6.5854 10.5188 6.25915 10.1363L3.16582 7.09875C2.75499 6.71625 2.42874 6.04125 2.42874 5.58V3.83625C2.41665 2.93625 3.15374 2.25 4.0479 2.25Z" stroke="black" stroke-width="1.5" stroke-miterlimit="10" stroke-linecap="round" stroke-linejoin="round"/>
<path d="M2.41663 13.5V16.875C2.41663 22.5 4.83329 24.75 10.875 24.75H18.125C24.1666 24.75 26.5833 22.5 26.5833 16.875V10.125C26.5833 6.61502 25.6408 4.41002 23.4537 3.26252C22.8375 2.93627 21.605 2.68877 20.4812 2.52002M15.7083 14.625H21.75M13.2916 19.125H21.75" stroke="black" stroke-width="1.5" stroke-linecap="round" stroke-linejoin="round"/>
</svg>
