<svg width="80" height="80" viewBox="0 0 80 80" fill="none" xmlns="http://www.w3.org/2000/svg">
<path d="M40 5C49.2826 5 58.185 8.68749 64.7487 15.2513C71.3125 21.815 75 30.7174 75 40C75 49.2826 71.3125 58.185 64.7487 64.7487C58.185 71.3125 49.2826 75 40 75C30.7174 75 21.815 71.3125 15.2513 64.7487C8.68749 58.185 5 49.2826 5 40C5 30.7174 8.68749 21.815 15.2513 15.2513C21.815 8.68749 30.7174 5 40 5ZM35.64 46.905L27.865 39.125C27.5863 38.8463 27.2554 38.6252 26.8912 38.4743C26.527 38.3235 26.1367 38.2458 25.7425 38.2458C25.3483 38.2458 24.958 38.3235 24.5938 38.4743C24.2296 38.6252 23.8987 38.8463 23.62 39.125C23.0571 39.6879 22.7408 40.4514 22.7408 41.2475C22.7408 42.0436 23.0571 42.8071 23.62 43.37L33.52 53.27C33.7979 53.5501 34.1286 53.7725 34.4929 53.9242C34.8572 54.0759 35.2479 54.154 35.6425 54.154C36.0371 54.154 36.4278 54.0759 36.7921 53.9242C37.1564 53.7725 37.4871 53.5501 37.765 53.27L58.265 32.765C58.5475 32.4874 58.7722 32.1567 58.9261 31.7918C59.0801 31.427 59.1604 31.0352 59.1622 30.6392C59.164 30.2432 59.0875 29.8508 58.9369 29.4845C58.7863 29.1182 58.5647 28.7854 58.2848 28.5052C58.005 28.225 57.6724 28.003 57.3063 27.852C56.9402 27.701 56.5478 27.6239 56.1518 27.6253C55.7558 27.6267 55.364 27.7064 54.999 27.86C54.6339 28.0136 54.3029 28.2379 54.025 28.52L35.64 46.905Z" fill="#E52D2D"/>
</svg>
