<svg width="24" height="24" viewBox="0 0 24 24" fill="none" xmlns="http://www.w3.org/2000/svg">
<path d="M12 0C13.1016 0 14.1641 0.140625 15.1875 0.421875C16.2109 0.703125 17.1641 1.10938 18.0469 1.64062C18.9297 2.17188 19.7383 2.79688 20.4727 3.51562C21.207 4.23438 21.8359 5.04297 22.3594 5.94141C22.8828 6.83984 23.2852 7.79688 23.5664 8.8125C23.8477 9.82812 23.9922 10.8906 24 12C24 12.9844 23.8867 13.9375 23.6602 14.8594C23.4336 15.7812 23.1055 16.6602 22.6758 17.4961C22.2461 18.332 21.7305 19.0977 21.1289 19.793C20.5273 20.4883 19.8477 21.1172 19.0898 21.6797C18.332 22.2422 17.5195 22.7031 16.6523 23.0625C15.7852 23.4219 14.8594 23.6875 13.875 23.8594V15.4688H16.6758L17.2031 12H13.875V9.75C13.875 9.32031 13.9453 8.98047 14.0859 8.73047C14.2266 8.48047 14.4141 8.29297 14.6484 8.16797C14.8828 8.04297 15.1484 7.96094 15.4453 7.92188C15.7422 7.88281 16.0508 7.86328 16.3711 7.86328H16.8633C17.0273 7.86328 17.1875 7.86719 17.3438 7.875V4.92188C16.9062 4.84375 16.4609 4.78516 16.0078 4.74609C15.5547 4.70703 15.1055 4.6875 14.6602 4.6875C13.9336 4.6875 13.2891 4.79688 12.7266 5.01562C12.1641 5.23438 11.6914 5.54688 11.3086 5.95312C10.9258 6.35938 10.6328 6.84766 10.4297 7.41797C10.2266 7.98828 10.125 8.63281 10.125 9.35156V12H7.07812V15.4688H10.125V23.8594C9.14844 23.7109 8.22266 23.4492 7.34766 23.0742C6.47266 22.6992 5.66016 22.2383 4.91016 21.6914C4.16016 21.1445 3.48438 20.5156 2.88281 19.8047C2.28125 19.0938 1.76562 18.3242 1.33594 17.4961C0.90625 16.668 0.578125 15.793 0.351562 14.8711C0.125 13.9492 0.0078125 12.9922 0 12C0 10.8984 0.140625 9.83594 0.421875 8.8125C0.703125 7.78906 1.10938 6.83594 1.64062 5.95312C2.17188 5.07031 2.79688 4.26172 3.51562 3.52734C4.23438 2.79297 5.04297 2.16406 5.94141 1.64062C6.83984 1.11719 7.79688 0.714844 8.8125 0.433594C9.82812 0.152344 10.8906 0.0078125 12 0Z" fill="#00539F"/>
</svg>
