<svg width="120" height="120" viewBox="0 0 120 120" fill="none" xmlns="http://www.w3.org/2000/svg">
<path d="M104.2 113.65L90.55 100H15V95L25 85V55C25 49.3 26.45 43.65 29.15 38.6L5.55005 15L11.95 8.65002L110.55 107.3L104.2 113.65ZM95 79V55C95 39.5 84.8501 25.85 70.0001 21.45V20C70.0001 17.3479 68.9465 14.8043 67.0711 12.929C65.1958 11.0536 62.6522 10 60 10C57.3479 10 54.8043 11.0536 52.929 12.929C51.0536 14.8043 50 17.3479 50 20V21.45C46.9501 22.35 44 23.7 41.3 25.45L95 79ZM60 115C62.6522 115 65.1958 113.946 67.0711 112.071C68.9465 110.196 70.0001 107.652 70.0001 105H50C50 107.652 51.0536 110.196 52.929 112.071C54.8043 113.946 57.3479 115 60 115Z" fill="black"/>
</svg>
