<svg width="111" height="139" viewBox="0 0 111 139" fill="none" xmlns="http://www.w3.org/2000/svg">
<path d="M48.5625 90.35V104.25C48.5625 106.219 49.2285 107.869 50.5605 109.198C51.8879 110.533 53.5344 111.2 55.5 111.2C57.4656 111.2 59.1144 110.533 60.4464 109.198C61.7738 107.869 62.4375 106.219 62.4375 104.25V90.35H76.3125C78.2781 90.35 79.9269 89.6828 81.2589 88.3484C82.5863 87.0186 83.25 85.3692 83.25 83.4C83.25 81.4308 82.5863 79.779 81.2589 78.4446C79.9269 77.1149 78.2781 76.45 76.3125 76.45H62.4375V62.55C62.4375 60.5808 61.7738 58.929 60.4464 57.5946C59.1144 56.2649 57.4656 55.6 55.5 55.6C53.5344 55.6 51.8879 56.2649 50.5605 57.5946C49.2285 58.929 48.5625 60.5808 48.5625 62.55V76.45H34.6875C32.7219 76.45 31.0754 77.1149 29.748 78.4446C28.416 79.779 27.75 81.4308 27.75 83.4C27.75 85.3692 28.416 87.0186 29.748 88.3484C31.0754 89.6828 32.7219 90.35 34.6875 90.35H48.5625ZM13.875 139C10.0594 139 6.79412 137.64 4.07925 134.92C1.35975 132.196 0 128.923 0 125.1V13.9C0 10.0775 1.35975 6.80405 4.07925 4.07965C6.79412 1.35988 10.0594 0 13.875 0H63.6516C65.5016 0 67.266 0.347501 68.9449 1.0425C70.6191 1.7375 72.0922 2.72208 73.3641 3.99625L107.011 37.7038C108.283 38.9779 109.266 40.4536 109.959 42.1309C110.653 43.8128 111 45.5804 111 47.4337V125.1C111 128.923 109.643 132.196 106.928 134.92C104.208 137.64 100.941 139 97.125 139H13.875ZM62.4375 41.7V13.9H13.875V125.1H97.125V48.65H69.375C67.4094 48.65 65.7629 47.9828 64.4355 46.6484C63.1035 45.3186 62.4375 43.6692 62.4375 41.7Z" fill="black"/>
</svg>
