<svg width="24" height="24" viewBox="0 0 24 24" fill="none" xmlns="http://www.w3.org/2000/svg">
<path d="M16.96 6.17001C18.96 7.56001 20.34 9.77001 20.62 12.32M3.49 12.37C3.61573 11.1472 4.00211 9.96552 4.62311 8.90464C5.24412 7.84376 6.08531 6.92832 7.09 6.22001M8.19 20.94C9.35 21.53 10.67 21.86 12.06 21.86C13.4 21.86 14.66 21.56 15.79 21.01M12.06 7.70001C12.7973 7.70001 13.5044 7.40712 14.0258 6.88577C14.5471 6.36442 14.84 5.65732 14.84 4.92001C14.84 4.18271 14.5471 3.47561 14.0258 2.95426C13.5044 2.43291 12.7973 2.14001 12.06 2.14001C11.3227 2.14001 10.6156 2.43291 10.0942 2.95426C9.57289 3.47561 9.28 4.18271 9.28 4.92001C9.28 5.65732 9.57289 6.36442 10.0942 6.88577C10.6156 7.40712 11.3227 7.70001 12.06 7.70001ZM4.83 19.92C5.5673 19.92 6.27441 19.6271 6.79576 19.1058C7.31711 18.5844 7.61 17.8773 7.61 17.14C7.61 16.4027 7.31711 15.6956 6.79576 15.1743C6.27441 14.6529 5.5673 14.36 4.83 14.36C4.0927 14.36 3.3856 14.6529 2.86425 15.1743C2.34289 15.6956 2.05 16.4027 2.05 17.14C2.05 17.8773 2.34289 18.5844 2.86425 19.1058C3.3856 19.6271 4.0927 19.92 4.83 19.92ZM19.17 19.92C19.9073 19.92 20.6144 19.6271 21.1358 19.1058C21.6571 18.5844 21.95 17.8773 21.95 17.14C21.95 16.4027 21.6571 15.6956 21.1358 15.1743C20.6144 14.6529 19.9073 14.36 19.17 14.36C18.4327 14.36 17.7256 14.6529 17.2042 15.1743C16.6829 15.6956 16.39 16.4027 16.39 17.14C16.39 17.8773 16.6829 18.5844 17.2042 19.1058C17.7256 19.6271 18.4327 19.92 19.17 19.92Z" stroke="white" stroke-width="1.5" stroke-linecap="round" stroke-linejoin="round"/>
</svg>
