<svg width="64" height="64" viewBox="0 0 64 64" fill="none" xmlns="http://www.w3.org/2000/svg">
<path d="M22.3467 32L28.7733 38.4533L41.6533 25.5466" stroke="black" stroke-width="1.5" stroke-linecap="round" stroke-linejoin="round"/>
<path d="M28.6667 6.53333C30.5067 4.96 33.52 4.96 35.3867 6.53333L39.6 10.16C40.4 10.8533 41.8933 11.4133 42.96 11.4133H47.4933C50.32 11.4133 52.64 13.7333 52.64 16.56V21.0933C52.64 22.1333 53.2 23.6533 53.8933 24.4533L57.52 28.6667C59.0933 30.5067 59.0933 33.52 57.52 35.3867L53.8933 39.6C53.2 40.4 52.64 41.8933 52.64 42.96V47.4933C52.64 50.32 50.32 52.64 47.4933 52.64H42.96C41.92 52.64 40.4 53.2 39.6 53.8933L35.3867 57.52C33.5467 59.0933 30.5333 59.0933 28.6667 57.52L24.4533 53.8933C23.6533 53.2 22.16 52.64 21.0933 52.64H16.48C13.6533 52.64 11.3333 50.32 11.3333 47.4933V42.9333C11.3333 41.8933 10.7733 40.4 10.1067 39.6L6.50668 35.36C4.96001 33.52 4.96001 30.5333 6.50668 28.6933L10.1067 24.4533C10.7733 23.6533 11.3333 22.16 11.3333 21.12V16.5333C11.3333 13.7067 13.6533 11.3867 16.48 11.3867H21.0933C22.1333 11.3867 23.6533 10.8267 24.4533 10.1333L28.6667 6.53333Z" stroke="black" stroke-width="1.5" stroke-linecap="round" stroke-linejoin="round"/>
</svg>
